[2025-06-03 13:07:25] [INFO] Starting setup for lane 1 (IP 192.168.4.101, DISPLAY :11), attempt 1
[2025-06-03 13:07:25] [INFO] Checking network reachability for 192.168.4.101
[2025-06-03 13:07:25] [WARN] 192.168.4.101 unreachable, retrying in 5 seconds...
[2025-06-03 13:07:31] [WARN] 192.168.4.101 unreachable, retrying in 5 seconds...
[2025-06-03 13:07:36] [INFO] Generated XAUTHORITY file at /tmp/.Xauthority.6tRc1e
[2025-06-03 13:07:36] [INFO] Starting Xvfb on display :11
[2025-06-03 13:07:36] [INFO] Xvfb started with PID 1398
The XKEYBOARD keymap compiler (xkbcomp) reports:
> Warning:          Could not resolve keysym XF86CameraAccessEnable
> Warning:          Could not resolve keysym XF86CameraAccessDisable
> Warning:          Could not resolve keysym XF86CameraAccessToggle
> Warning:          Could not resolve keysym XF86NextElement
> Warning:          Could not resolve keysym XF86PreviousElement
> Warning:          Could not resolve keysym XF86AutopilotEngageToggle
> Warning:          Could not resolve keysym XF86MarkWaypoint
> Warning:          Could not resolve keysym XF86Sos
> Warning:          Could not resolve keysym XF86NavChart
> Warning:          Could not resolve keysym XF86FishingChart
> Warning:          Could not resolve keysym XF86SingleRangeRadar
> Warning:          Could not resolve keysym XF86DualRangeRadar
> Warning:          Could not resolve keysym XF86RadarOverlay
> Warning:          Could not resolve keysym XF86TraditionalSonar
> Warning:          Could not resolve keysym XF86ClearvuSonar
> Warning:          Could not resolve keysym XF86SidevuSonar
> Warning:          Could not resolve keysym XF86NavInfo
Errors from xkbcomp are not fatal to the X server
[2025-06-03 13:07:38] [INFO] Generating xauth entry for :11
[2025-06-03 13:07:38] [INFO] xauth entry generated
[2025-06-03 13:07:38] [INFO] DISPLAY set to :11
[2025-06-03 13:07:38] [INFO] Starting vncviewer on 192.168.4.101 (lane 1)
[2025-06-03 13:07:38] [INFO] vncviewer started with PID 1444
The XKEYBOARD keymap compiler (xkbcomp) reports:
> Warning:          Could not resolve keysym XF86CameraAccessEnable
> Warning:          Could not resolve keysym XF86CameraAccessDisable
> Warning:          Could not resolve keysym XF86CameraAccessToggle
> Warning:          Could not resolve keysym XF86NextElement
> Warning:          Could not resolve keysym XF86PreviousElement
> Warning:          Could not resolve keysym XF86AutopilotEngageToggle
> Warning:          Could not resolve keysym XF86MarkWaypoint
> Warning:          Could not resolve keysym XF86Sos
> Warning:          Could not resolve keysym XF86NavChart
> Warning:          Could not resolve keysym XF86FishingChart
> Warning:          Could not resolve keysym XF86SingleRangeRadar
> Warning:          Could not resolve keysym XF86DualRangeRadar
> Warning:          Could not resolve keysym XF86RadarOverlay
> Warning:          Could not resolve keysym XF86TraditionalSonar
> Warning:          Could not resolve keysym XF86ClearvuSonar
> Warning:          Could not resolve keysym XF86SidevuSonar
> Warning:          Could not resolve keysym XF86NavInfo

TigerVNC Viewer v1.13.1
Built on: 2024-04-01 08:26
Copyright (C) 1999-2022 TigerVNC Team and many others (see README.rst)
See https://www.tigervnc.org for information on TigerVNC.
Errors from xkbcomp are not fatal to the X server

Tue Jun  3 13:07:38 2025
 DecodeManager: Detected 4 CPU core(s)
 DecodeManager: Creating 4 decoder thread(s)
 CConn:       Connected to host 192.168.4.101 port 5900
 CConnection: Server supports RFB protocol version 3.8
 CConnection: Using RFB protocol version 3.8
 CConnection: Choosing security type VncAuth(2)
 DesktopWindow: Adjusting window size to avoid accidental full-screen request
 CConn:       Using pixel format depth 24 (32bpp) little-endian rgb888
XRequest.131: BadWindow (invalid Window parameter) 0x200005
[2025-06-03 13:07:43] [INFO] Starting ffmpeg capturing :11 and streaming to /home/user/vnc-hls/hls/lane1/stream.m3u8
Input #0, x11grab, from ':11':
  Duration: N/A, start: 1748970463.459039, bitrate: 122880 kb/s
  Stream #0:0: Video: rawvideo (BGR[0] / 0x524742), bgr0, 480x800, 122880 kb/s, 10 fps, 10 tbr, 1000k tbn
[out#0/hls @ 0x598085f9f780] Codec AVOption sc_threshold (Scene change threshold) has not been used for any stream. The most likely reason is either wrong type (e.g. a video option with no video streams) or that it is a private option of some encoder which was not actually used for any stream.
Stream mapping:
  Stream #0:0 -> #0:0 (rawvideo (native) -> h264 (h264_vaapi))
Press [q] to stop, [?] for help
Output #0, hls, to '/home/user/vnc-hls/hls/lane1/stream.m3u8':
  Metadata:
    encoder         : Lavf60.16.100
  Stream #0:0: Video: h264 (High), vaapi(tv, progressive), 480x800, q=2-31, 1000 kb/s, 10 fps, 90k tbn
    Metadata:
      encoder         : Lavc60.31.102 h264_vaapi
frame=    0 fps=0.0 q=0.0 size=       0kB time=N/A bitrate=N/A speed=N/A    frame=    7 fps=0.0 q=-0.0 size=N/A time=00:00:00.60 bitrate=N/A speed=   1x    frame=   13 fps= 11 q=-0.0 size=N/A time=00:00:01.20 bitrate=N/A speed=   1x    frame=   19 fps= 11 q=-0.0 size=N/A time=00:00:01.80 bitrate=N/A speed=   1x    frame=   24 fps= 10 q=-0.0 size=N/A time=00:00:02.30 bitrate=N/A speed=   1x    frame=   30 fps= 10 q=-0.0 size=N/A time=00:00:02.90 bitrate=N/A speed=   1x    frame=   36 fps= 10 q=-0.0 size=N/A time=00:00:03.50 bitrate=N/A speed=   1x    frame=   42 fps= 10 q=-0.0 size=N/A time=00:00:04.10 bitrate=N/A speed=   1x    frame=   48 fps= 10 q=-0.0 size=N/A time=00:00:04.70 bitrate=N/A speed=   1x    frame=   53 fps= 10 q=-0.0 size=N/A time=00:00:05.20 bitrate=N/A speed=   1x    frame=   58 fps= 10 q=-0.0 size=N/A time=00:00:05.70 bitrate=N/A speed=   1x    [hls @ 0x598085fa0480] Opening '/home/user/vnc-hls/hls/lane1/segment_20250603-130743.ts' for writing
[hls @ 0x598085fa0480] Opening '/home/user/vnc-hls/hls/lane1/stream.m3u8.tmp' for writing
frame=   63 fps= 10 q=-0.0 size=N/A time=00:00:06.20 bitrate=N/A speed=   1x    frame=   69 fps= 10 q=-0.0 size=N/A time=00:00:06.80 bitrate=N/A speed=   1x    frame=   75 fps= 10 q=-0.0 size=N/A time=00:00:07.40 bitrate=N/A speed=   1x    frame=   80 fps= 10 q=-0.0 size=N/A time=00:00:07.90 bitrate=N/A speed=   1x    frame=   86 fps= 10 q=-0.0 size=N/A time=00:00:08.50 bitrate=N/A speed=   1x    [hls @ 0x598085fa0480] Opening '/home/user/vnc-hls/hls/lane1/segment_20250603-130749.ts' for writing
[hls @ 0x598085fa0480] Opening '/home/user/vnc-hls/hls/lane1/stream.m3u8.tmp' for writing
frame=   91 fps= 10 q=-0.0 size=N/A time=00:00:09.00 bitrate=N/A speed=   1x    frame=   96 fps= 10 q=-0.0 size=N/A time=00:00:09.50 bitrate=N/A speed=   1x    frame=  102 fps= 10 q=-0.0 size=N/A time=00:00:10.10 bitrate=N/A speed=   1x    frame=  108 fps= 10 q=-0.0 size=N/A time=00:00:10.70 bitrate=N/A speed=   1x    frame=  114 fps= 10 q=-0.0 size=N/A time=00:00:11.30 bitrate=N/A speed=   1x    frame=  120 fps= 10 q=-0.0 size=N/A time=00:00:11.90 bitrate=N/A speed=   1x    [hls @ 0x598085fa0480] Opening '/home/user/vnc-hls/hls/lane1/segment_20250603-130752.ts' for writing
[hls @ 0x598085fa0480] Opening '/home/user/vnc-hls/hls/lane1/stream.m3u8.tmp' for writing
frame=  126 fps= 10 q=-0.0 size=N/A time=00:00:12.50 bitrate=N/A speed=   1x    frame=  132 fps= 10 q=-0.0 size=N/A time=00:00:13.10 bitrate=N/A speed=   1x    frame=  137 fps= 10 q=-0.0 size=N/A time=00:00:13.60 bitrate=N/A speed=   1x    frame=  143 fps= 10 q=-0.0 size=N/A time=00:00:14.20 bitrate=N/A speed=   1x    frame=  148 fps= 10 q=-0.0 size=N/A time=00:00:14.70 bitrate=N/A speed=   1x    frame=  154 fps= 10 q=-0.0 size=N/A time=00:00:15.30 bitrate=N/A speed=   1x    frame=  159 fps= 10 q=-0.0 size=N/A time=00:00:15.80 bitrate=N/A speed=   1x    frame=  165 fps= 10 q=-0.0 size=N/A time=00:00:16.40 bitrate=N/A speed=   1x    frame=  170 fps= 10 q=-0.0 size=N/A time=00:00:16.90 bitrate=N/A speed=   1x    frame=  176 fps= 10 q=-0.0 size=N/A time=00:00:17.50 bitrate=N/A speed=   1x    [hls @ 0x598085fa0480] Opening '/home/user/vnc-hls/hls/lane1/segment_20250603-130755.ts' for writing
[hls @ 0x598085fa0480] Opening '/home/user/vnc-hls/hls/lane1/stream.m3u8.tmp' for writing
frame=  182 fps= 10 q=-0.0 size=N/A time=00:00:18.10 bitrate=N/A speed=   1x    frame=  188 fps= 10 q=-0.0 size=N/A time=00:00:18.70 bitrate=N/A speed=   1x    frame=  193 fps= 10 q=-0.0 size=N/A time=00:00:19.20 bitrate=N/A speed=   1x    frame=  199 fps= 10 q=-0.0 size=N/A time=00:00:19.80 bitrate=N/A speed=   1x    frame=  205 fps= 10 q=-0.0 size=N/A time=00:00:20.40 bitrate=N/A speed=   1x    frame=  210 fps= 10 q=-0.0 size=N/A time=00:00:20.90 bitrate=N/A speed=   1x    [hls @ 0x598085fa0480] Opening '/home/user/vnc-hls/hls/lane1/segment_20250603-130801.ts' for writing
[hls @ 0x598085fa0480] Opening '/home/user/vnc-hls/hls/lane1/stream.m3u8.tmp' for writing
frame=  215 fps= 10 q=-0.0 size=N/A time=00:00:21.40 bitrate=N/A speed=   1x    frame=  221 fps= 10 q=-0.0 size=N/A time=00:00:22.00 bitrate=N/A speed=   1x    frame=  227 fps= 10 q=-0.0 size=N/A time=00:00:22.60 bitrate=N/A speed=   1x    frame=  232 fps= 10 q=-0.0 size=N/A time=00:00:23.10 bitrate=N/A speed=   1x    frame=  238 fps= 10 q=-0.0 size=N/A time=00:00:23.70 bitrate=N/A speed=   1x    [hls @ 0x598085fa0480] Opening '/home/user/vnc-hls/hls/lane1/segment_20250603-130804.ts' for writing
[hls @ 0x598085fa0480] Opening '/home/user/vnc-hls/hls/lane1/stream.m3u8.tmp' for writing
frame=  243 fps= 10 q=-0.0 size=N/A time=00:00:24.20 bitrate=N/A speed=   1x    frame=  249 fps= 10 q=-0.0 size=N/A time=00:00:24.80 bitrate=N/A speed=   1x    frame=  254 fps= 10 q=-0.0 size=N/A time=00:00:25.30 bitrate=N/A speed=   1x    frame=  260 fps= 10 q=-0.0 size=N/A time=00:00:25.90 bitrate=N/A speed=   1x    frame=  266 fps= 10 q=-0.0 size=N/A time=00:00:26.50 bitrate=N/A speed=   1x    frame=  272 fps= 10 q=-0.0 size=N/A time=00:00:27.10 bitrate=N/A speed=   1x    frame=  277 fps= 10 q=-0.0 size=N/A time=00:00:27.60 bitrate=N/A speed=   1x    frame=  282 fps= 10 q=-0.0 size=N/A time=00:00:28.10 bitrate=N/A speed=   1x    frame=  288 fps= 10 q=-0.0 size=N/A time=00:00:28.70 bitrate=N/A speed=   1x    frame=  294 fps= 10 q=-0.0 size=N/A time=00:00:29.30 bitrate=N/A speed=   1x    frame=  299 fps= 10 q=-0.0 size=N/A time=00:00:29.80 bitrate=N/A speed=   1x    [hls @ 0x598085fa0480] Opening '/home/user/vnc-hls/hls/lane1/segment_20250603-130807.ts' for writing
[hls @ 0x598085fa0480] Opening '/home/user/vnc-hls/hls/lane1/stream.m3u8.tmp' for writing
frame=  305 fps= 10 q=-0.0 size=N/A time=00:00:30.40 bitrate=N/A speed=   1x    frame=  310 fps= 10 q=-0.0 size=N/A time=00:00:30.90 bitrate=N/A speed=   1x    frame=  316 fps= 10 q=-0.0 size=N/A time=00:00:31.50 bitrate=N/A speed=   1x    frame=  321 fps= 10 q=-0.0 size=N/A time=00:00:32.00 bitrate=N/A speed=   1x    frame=  327 fps= 10 q=-0.0 size=N/A time=00:00:32.60 bitrate=N/A speed=   1x    [hls @ 0x598085fa0480] Opening '/home/user/vnc-hls/hls/lane1/segment_20250603-130813.ts' for writing
[hls @ 0x598085fa0480] Opening '/home/user/vnc-hls/hls/lane1/stream.m3u8.tmp' for writing
frame=  333 fps= 10 q=-0.0 size=N/A time=00:00:33.20 bitrate=N/A speed=   1x    frame=  338 fps= 10 q=-0.0 size=N/A time=00:00:33.70 bitrate=N/A speed=   1x    frame=  344 fps= 10 q=-0.0 size=N/A time=00:00:34.30 bitrate=N/A speed=   1x    frame=  350 fps= 10 q=-0.0 size=N/A time=00:00:34.90 bitrate=N/A speed=   1x    frame=  356 fps= 10 q=-0.0 size=N/A time=00:00:35.50 bitrate=N/A speed=   1x    [hls @ 0x598085fa0480] Opening '/home/user/vnc-hls/hls/lane1/segment_20250603-130816.ts' for writing
[hls @ 0x598085fa0480] Opening '/home/user/vnc-hls/hls/lane1/stream.m3u8.tmp' for writing
frame=  361 fps= 10 q=-0.0 size=N/A time=00:00:36.00 bitrate=N/A speed=   1x    frame=  367 fps= 10 q=-0.0 size=N/A time=00:00:36.60 bitrate=N/A speed=   1x    frame=  372 fps= 10 q=-0.0 size=N/A time=00:00:37.10 bitrate=N/A speed=   1x    frame=  378 fps= 10 q=-0.0 size=N/A time=00:00:37.70 bitrate=N/A speed=   1x    frame=  383 fps= 10 q=-0.0 size=N/A time=00:00:38.20 bitrate=N/A speed=   1x    frame=  390 fps= 10 q=-0.0 size=N/A time=00:00:38.80 bitrate=N/A speed=   1x    frame=  394 fps= 10 q=-0.0 size=N/A time=00:00:39.30 bitrate=N/A speed=   1x    frame=  400 fps= 10 q=-0.0 size=N/A time=00:00:39.90 bitrate=N/A speed=   1x    frame=  407 fps= 10 q=-0.0 size=N/A time=00:00:40.50 bitrate=N/A speed=   1x    frame=  411 fps= 10 q=-0.0 size=N/A time=00:00:41.00 bitrate=N/A speed=   1x    frame=  417 fps= 10 q=-0.0 size=N/A time=00:00:41.60 bitrate=N/A speed=   1x    [hls @ 0x598085fa0480] Opening '/home/user/vnc-hls/hls/lane1/segment_20250603-130819.ts' for writing
[hls @ 0x598085fa0480] Opening '/home/user/vnc-hls/hls/lane1/stream.m3u8.tmp' for writing
frame=  422 fps= 10 q=-0.0 size=N/A time=00:00:42.10 bitrate=N/A speed=   1x    frame=  428 fps= 10 q=-0.0 size=N/A time=00:00:42.70 bitrate=N/A speed=   1x    frame=  433 fps= 10 q=-0.0 size=N/A time=00:00:43.20 bitrate=N/A speed=   1x    frame=  439 fps= 10 q=-0.0 size=N/A time=00:00:43.80 bitrate=N/A speed=   1x    frame=  445 fps= 10 q=-0.0 size=N/A time=00:00:44.40 bitrate=N/A speed=   1x    [hls @ 0x598085fa0480] Opening '/home/user/vnc-hls/hls/lane1/segment_20250603-130825.ts' for writing
[hls @ 0x598085fa0480] Opening '/home/user/vnc-hls/hls/lane1/stream.m3u8.tmp' for writing
frame=  451 fps= 10 q=-0.0 size=N/A time=00:00:45.00 bitrate=N/A speed=   1x    frame=  457 fps= 10 q=-0.0 size=N/A time=00:00:45.60 bitrate=N/A speed=   1x    frame=  462 fps= 10 q=-0.0 size=N/A time=00:00:46.10 bitrate=N/A speed=   1x    frame=  468 fps= 10 q=-0.0 size=N/A time=00:00:46.70 bitrate=N/A speed=   1x    frame=  473 fps= 10 q=-0.0 size=N/A time=00:00:47.20 bitrate=N/A speed=   1x    frame=  478 fps= 10 q=-0.0 size=N/A time=00:00:47.70 bitrate=N/A speed=   1x    [hls @ 0x598085fa0480] Opening '/home/user/vnc-hls/hls/lane1/segment_20250603-130828.ts' for writing
[hls @ 0x598085fa0480] Opening '/home/user/vnc-hls/hls/lane1/stream.m3u8.tmp' for writing
frame=  484 fps= 10 q=-0.0 size=N/A time=00:00:48.30 bitrate=N/A speed=   1x    frame=  490 fps= 10 q=-0.0 size=N/A time=00:00:48.90 bitrate=N/A speed=   1x    
Tue Jun  3 13:08:32 2025
 CConn:       Throughput 15995 kbit/s - changing to quality 6
frame=  496 fps= 10 q=-0.0 size=N/A time=00:00:49.50 bitrate=N/A speed=   1x    frame=  502 fps= 10 q=-0.0 size=N/A time=00:00:50.10 bitrate=N/A speed=   1x    frame=  508 fps= 10 q=-0.0 size=N/A time=00:00:50.70 bitrate=N/A speed=   1x    frame=  513 fps= 10 q=-0.0 size=N/A time=00:00:51.20 bitrate=N/A speed=   1x    frame=  519 fps= 10 q=-0.0 size=N/A time=00:00:51.80 bitrate=N/A speed=   1x    frame=  525 fps= 10 q=-0.0 size=N/A time=00:00:52.40 bitrate=N/A speed=   1x    frame=  530 fps= 10 q=-0.0 size=N/A time=00:00:52.90 bitrate=N/A speed=   1x    frame=  535 fps= 10 q=-0.0 size=N/A time=00:00:53.40 bitrate=N/A speed=   1x    frame=  540 fps= 10 q=-0.0 size=N/A time=00:00:53.90 bitrate=N/A speed=   1x    [hls @ 0x598085fa0480] Opening '/home/user/vnc-hls/hls/lane1/segment_20250603-130831.ts' for writing
[hls @ 0x598085fa0480] Opening '/home/user/vnc-hls/hls/lane1/stream.m3u8.tmp' for writing
frame=  546 fps= 10 q=-0.0 size=N/A time=00:00:54.50 bitrate=N/A speed=   1x    frame=  551 fps= 10 q=-0.0 size=N/A time=00:00:55.00 bitrate=N/A speed=   1x    frame=  556 fps= 10 q=-0.0 size=N/A time=00:00:55.50 bitrate=N/A speed=   1x    frame=  562 fps= 10 q=-0.0 size=N/A time=00:00:56.10 bitrate=N/A speed=   1x    frame=  568 fps= 10 q=-0.0 size=N/A time=00:00:56.70 bitrate=N/A speed=   1x    [hls @ 0x598085fa0480] Opening '/home/user/vnc-hls/hls/lane1/segment_20250603-130837.ts' for writing
[hls @ 0x598085fa0480] Opening '/home/user/vnc-hls/hls/lane1/stream.m3u8.tmp' for writing
frame=  574 fps= 10 q=-0.0 size=N/A time=00:00:57.30 bitrate=N/A speed=   1x    frame=  580 fps= 10 q=-0.0 size=N/A time=00:00:57.90 bitrate=N/A speed=   1x    frame=  585 fps= 10 q=-0.0 size=N/A time=00:00:58.40 bitrate=N/A speed=   1x    frame=  591 fps= 10 q=-0.0 size=N/A time=00:00:59.00 bitrate=N/A speed=   1x    frame=  597 fps= 10 q=-0.0 size=N/A time=00:00:59.60 bitrate=N/A speed=   1x    [hls @ 0x598085fa0480] Opening '/home/user/vnc-hls/hls/lane1/segment_20250603-130840.ts' for writing
[hls @ 0x598085fa0480] Opening '/home/user/vnc-hls/hls/lane1/stream.m3u8.tmp' for writing
frame=  603 fps= 10 q=-0.0 size=N/A time=00:01:00.20 bitrate=N/A speed=   1x    frame=  608 fps= 10 q=-0.0 size=N/A time=00:01:00.70 bitrate=N/A speed=   1x    frame=  614 fps= 10 q=-0.0 size=N/A time=00:01:01.30 bitrate=N/A speed=   1x    frame=  620 fps= 10 q=-0.0 size=N/A time=00:01:01.90 bitrate=N/A speed=   1x    frame=  626 fps= 10 q=-0.0 size=N/A time=00:01:02.50 bitrate=N/A speed=   1x    frame=  631 fps= 10 q=-0.0 size=N/A time=00:01:03.00 bitrate=N/A speed=   1x    frame=  636 fps= 10 q=-0.0 size=N/A time=00:01:03.50 bitrate=N/A speed=   1x    frame=  641 fps= 10 q=-0.0 size=N/A time=00:01:04.00 bitrate=N/A speed=   1x    frame=  647 fps= 10 q=-0.0 size=N/A time=00:01:04.60 bitrate=N/A speed=   1x    frame=  652 fps= 10 q=-0.0 size=N/A time=00:01:05.10 bitrate=N/A speed=   1x    frame=  658 fps= 10 q=-0.0 size=N/A time=00:01:05.70 bitrate=N/A speed=   1x    [hls @ 0x598085fa0480] Opening '/home/user/vnc-hls/hls/lane1/segment_20250603-130843.ts' for writing
[hls @ 0x598085fa0480] Opening '/home/user/vnc-hls/hls/lane1/stream.m3u8.tmp' for writing
frame=  664 fps= 10 q=-0.0 size=N/A time=00:01:06.30 bitrate=N/A speed=   1x    frame=  670 fps= 10 q=-0.0 size=N/A time=00:01:06.90 bitrate=N/A speed=   1x    frame=  675 fps= 10 q=-0.0 size=N/A time=00:01:07.40 bitrate=N/A speed=   1x    frame=  681 fps= 10 q=-0.0 size=N/A time=00:01:08.00 bitrate=N/A speed=   1x    frame=  687 fps= 10 q=-0.0 size=N/A time=00:01:08.60 bitrate=N/A speed=   1x    [hls @ 0x598085fa0480] Opening '/home/user/vnc-hls/hls/lane1/segment_20250603-130849.ts' for writing
[hls @ 0x598085fa0480] Opening '/home/user/vnc-hls/hls/lane1/stream.m3u8.tmp' for writing
frame=  692 fps= 10 q=-0.0 size=N/A time=00:01:09.10 bitrate=N/A speed=   1x    frame=  698 fps= 10 q=-0.0 size=N/A time=00:01:09.70 bitrate=N/A speed=   1x    frame=  703 fps= 10 q=-0.0 size=N/A time=00:01:10.20 bitrate=N/A speed=   1x    frame=  709 fps= 10 q=-0.0 size=N/A time=00:01:10.80 bitrate=N/A speed=   1x    frame=  715 fps= 10 q=-0.0 size=N/A time=00:01:11.40 bitrate=N/A speed=   1x    frame=  720 fps= 10 q=-0.0 size=N/A time=00:01:11.90 bitrate=N/A speed=   1x    [hls @ 0x598085fa0480] Opening '/home/user/vnc-hls/hls/lane1/segment_20250603-130852.ts' for writing
[hls @ 0x598085fa0480] Opening '/home/user/vnc-hls/hls/lane1/stream.m3u8.tmp' for writing
frame=  725 fps= 10 q=-0.0 size=N/A time=00:01:12.40 bitrate=N/A speed=   1x    frame=  730 fps= 10 q=-0.0 size=N/A time=00:01:12.90 bitrate=N/A speed=   1x    frame=  736 fps= 10 q=-0.0 size=N/A time=00:01:13.50 bitrate=N/A speed=   1x    frame=  741 fps= 10 q=-0.0 size=N/A time=00:01:14.00 bitrate=N/A speed=   1x    frame=  747 fps= 10 q=-0.0 size=N/A time=00:01:14.60 bitrate=N/A speed=   1x    frame=  753 fps= 10 q=-0.0 size=N/A time=00:01:15.20 bitrate=N/A speed=   1x    frame=  758 fps= 10 q=-0.0 size=N/A time=00:01:15.70 bitrate=N/A speed=   1x    frame=  764 fps= 10 q=-0.0 size=N/A time=00:01:16.30 bitrate=N/A speed=   1x    frame=  770 fps= 10 q=-0.0 size=N/A time=00:01:16.90 bitrate=N/A speed=   1x    frame=  776 fps= 10 q=-0.0 size=N/A time=00:01:17.50 bitrate=N/A speed=   1x    [hls @ 0x598085fa0480] Opening '/home/user/vnc-hls/hls/lane1/segment_20250603-130855.ts' for writing
[hls @ 0x598085fa0480] Opening '/home/user/vnc-hls/hls/lane1/stream.m3u8.tmp' for writing
frame=  781 fps= 10 q=-0.0 size=N/A time=00:01:18.00 bitrate=N/A speed=   1x    frame=  786 fps= 10 q=-0.0 size=N/A time=00:01:18.50 bitrate=N/A speed=   1x    frame=  792 fps= 10 q=-0.0 size=N/A time=00:01:19.10 bitrate=N/A speed=   1x    frame=  797 fps= 10 q=-0.0 size=N/A time=00:01:19.60 bitrate=N/A speed=   1x    frame=  803 fps= 10 q=-0.0 size=N/A time=00:01:20.20 bitrate=N/A speed=   1x    frame=  809 fps= 10 q=-0.0 size=N/A time=00:01:20.80 bitrate=N/A speed=   1x    [hls @ 0x598085fa0480] Opening '/home/user/vnc-hls/hls/lane1/segment_20250603-130901.ts' for writing
[hls @ 0x598085fa0480] Opening '/home/user/vnc-hls/hls/lane1/stream.m3u8.tmp' for writing
frame=  814 fps= 10 q=-0.0 size=N/A time=00:01:21.30 bitrate=N/A speed=   1x    frame=  820 fps= 10 q=-0.0 size=N/A time=00:01:21.90 bitrate=N/A speed=   1x    frame=  826 fps= 10 q=-0.0 size=N/A time=00:01:22.50 bitrate=N/A speed=   1x    frame=  832 fps= 10 q=-0.0 size=N/A time=00:01:23.10 bitrate=N/A speed=   1x    frame=  837 fps= 10 q=-0.0 size=N/A time=00:01:23.60 bitrate=N/A speed=   1x    [hls @ 0x598085fa0480] Opening '/home/user/vnc-hls/hls/lane1/segment_20250603-130904.ts' for writing
[hls @ 0x598085fa0480] Opening '/home/user/vnc-hls/hls/lane1/stream.m3u8.tmp' for writing
frame=  842 fps= 10 q=-0.0 size=N/A time=00:01:24.10 bitrate=N/A speed=   1x    frame=  848 fps= 10 q=-0.0 size=N/A time=00:01:24.70 bitrate=N/A speed=   1x    frame=  853 fps= 10 q=-0.0 size=N/A time=00:01:25.20 bitrate=N/A speed=   1x    frame=  858 fps= 10 q=-0.0 size=N/A time=00:01:25.70 bitrate=N/A speed=   1x    frame=  864 fps= 10 q=-0.0 size=N/A time=00:01:26.30 bitrate=N/A speed=   1x    frame=  870 fps= 10 q=-0.0 size=N/A time=00:01:26.90 bitrate=N/A speed=   1x    frame=  876 fps= 10 q=-0.0 size=N/A time=00:01:27.50 bitrate=N/A speed=   1x    frame=  881 fps= 10 q=-0.0 size=N/A time=00:01:28.00 bitrate=N/A speed=   1x    frame=  887 fps= 10 q=-0.0 size=N/A time=00:01:28.60 bitrate=N/A speed=   1x    frame=  892 fps= 10 q=-0.0 size=N/A time=00:01:29.10 bitrate=N/A speed=   1x    frame=  898 fps= 10 q=-0.0 size=N/A time=00:01:29.70 bitrate=N/A speed=   1x    [hls @ 0x598085fa0480] Opening '/home/user/vnc-hls/hls/lane1/segment_20250603-130907.ts' for writing
[hls @ 0x598085fa0480] Opening '/home/user/vnc-hls/hls/lane1/stream.m3u8.tmp' for writing
frame=  904 fps= 10 q=-0.0 size=N/A time=00:01:30.30 bitrate=N/A speed=   1x    frame=  909 fps= 10 q=-0.0 size=N/A time=00:01:30.80 bitrate=N/A speed=   1x    frame=  914 fps= 10 q=-0.0 size=N/A time=00:01:31.30 bitrate=N/A speed=   1x    frame=  919 fps= 10 q=-0.0 size=N/A time=00:01:31.80 bitrate=N/A speed=   1x    frame=  925 fps= 10 q=-0.0 size=N/A time=00:01:32.40 bitrate=N/A speed=   1x    [hls @ 0x598085fa0480] Opening '/home/user/vnc-hls/hls/lane1/segment_20250603-130913.ts' for writing
[hls @ 0x598085fa0480] Opening '/home/user/vnc-hls/hls/lane1/stream.m3u8.tmp' for writing
frame=  931 fps= 10 q=-0.0 size=N/A time=00:01:33.00 bitrate=N/A speed=   1x    frame=  937 fps= 10 q=-0.0 size=N/A time=00:01:33.60 bitrate=N/A speed=   1x    frame=  942 fps= 10 q=-0.0 size=N/A time=00:01:34.10 bitrate=N/A speed=   1x    frame=  947 fps= 10 q=-0.0 size=N/A time=00:01:34.60 bitrate=N/A speed=   1x    frame=  953 fps= 10 q=-0.0 size=N/A time=00:01:35.20 bitrate=N/A speed=   1x    frame=  959 fps= 10 q=-0.0 size=N/A time=00:01:35.80 bitrate=N/A speed=   1x    [hls @ 0x598085fa0480] Opening '/home/user/vnc-hls/hls/lane1/segment_20250603-130916.ts' for writing
[hls @ 0x598085fa0480] Opening '/home/user/vnc-hls/hls/lane1/stream.m3u8.tmp' for writing
frame=  964 fps= 10 q=-0.0 size=N/A time=00:01:36.30 bitrate=N/A speed=   1x    frame=  969 fps= 10 q=-0.0 size=N/A time=00:01:36.80 bitrate=N/A speed=   1x    frame=  975 fps= 10 q=-0.0 size=N/A time=00:01:37.40 bitrate=N/A speed=   1x    frame=  980 fps= 10 q=-0.0 size=N/A time=00:01:37.90 bitrate=N/A speed=   1x    frame=  985 fps= 10 q=-0.0 size=N/A time=00:01:38.40 bitrate=N/A speed=   1x    frame=  990 fps= 10 q=-0.0 size=N/A time=00:01:38.90 bitrate=N/A speed=   1x    frame=  996 fps= 10 q=-0.0 size=N/A time=00:01:39.50 bitrate=N/A speed=   1x    frame= 1002 fps= 10 q=-0.0 size=N/A time=00:01:40.10 bitrate=N/A speed=   1x    frame= 1008 fps= 10 q=-0.0 size=N/A time=00:01:40.70 bitrate=N/A speed=   1x    frame= 1013 fps= 10 q=-0.0 size=N/A time=00:01:41.20 bitrate=N/A speed=   1x    frame= 1018 fps= 10 q=-0.0 size=N/A time=00:01:41.70 bitrate=N/A speed=   1x    [hls @ 0x598085fa0480] Opening '/home/user/vnc-hls/hls/lane1/segment_20250603-130919.ts' for writing
[hls @ 0x598085fa0480] Opening '/home/user/vnc-hls/hls/lane1/stream.m3u8.tmp' for writing
frame= 1024 fps= 10 q=-0.0 size=N/A time=00:01:42.30 bitrate=N/A speed=   1x    frame= 1029 fps= 10 q=-0.0 size=N/A time=00:01:42.80 bitrate=N/A speed=   1x    frame= 1035 fps= 10 q=-0.0 size=N/A time=00:01:43.40 bitrate=N/A speed=   1x    frame= 1041 fps= 10 q=-0.0 size=N/A time=00:01:44.00 bitrate=N/A speed=   1x    frame= 1047 fps= 10 q=-0.0 size=N/A time=00:01:44.60 bitrate=N/A speed=   1x    [hls @ 0x598085fa0480] Opening '/home/user/vnc-hls/hls/lane1/segment_20250603-130925.ts' for writing
[hls @ 0x598085fa0480] Opening '/home/user/vnc-hls/hls/lane1/stream.m3u8.tmp' for writing
frame= 1052 fps= 10 q=-0.0 size=N/A time=00:01:45.10 bitrate=N/A speed=   1x    frame= 1058 fps= 10 q=-0.0 size=N/A time=00:01:45.70 bitrate=N/A speed=   1x    frame= 1064 fps= 10 q=-0.0 size=N/A time=00:01:46.30 bitrate=N/A speed=   1x    frame= 1069 fps= 10 q=-0.0 size=N/A time=00:01:46.80 bitrate=N/A speed=   1x    frame= 1075 fps= 10 q=-0.0 size=N/A time=00:01:47.40 bitrate=N/A speed=   1x    [hls @ 0x598085fa0480] Opening '/home/user/vnc-hls/hls/lane1/segment_20250603-130928.ts' for writing
[hls @ 0x598085fa0480] Opening '/home/user/vnc-hls/hls/lane1/stream.m3u8.tmp' for writing
frame= 1081 fps= 10 q=-0.0 size=N/A time=00:01:47.90 bitrate=N/A speed=   1x    frame= 1086 fps= 10 q=-0.0 size=N/A time=00:01:48.50 bitrate=N/A speed=   1x    frame= 1091 fps= 10 q=-0.0 size=N/A time=00:01:49.00 bitrate=N/A speed=   1x    frame= 1097 fps= 10 q=-0.0 size=N/A time=00:01:49.60 bitrate=N/A speed=   1x    frame= 1102 fps= 10 q=-0.0 size=N/A time=00:01:50.10 bitrate=N/A speed=   1x    frame= 1107 fps= 10 q=-0.0 size=N/A time=00:01:50.60 bitrate=N/A speed=   1x    frame= 1113 fps= 10 q=-0.0 size=N/A time=00:01:51.20 bitrate=N/A speed=   1x    frame= 1119 fps= 10 q=-0.0 size=N/A time=00:01:51.80 bitrate=N/A speed=   1x    frame= 1124 fps= 10 q=-0.0 size=N/A time=00:01:52.30 bitrate=N/A speed=   1x    frame= 1129 fps= 10 q=-0.0 size=N/A time=00:01:52.80 bitrate=N/A speed=   1x    frame= 1135 fps= 10 q=-0.0 size=N/A time=00:01:53.40 bitrate=N/A speed=   1x    frame= 1140 fps= 10 q=-0.0 size=N/A time=00:01:53.90 bitrate=N/A speed=   1x    [hls @ 0x598085fa0480] Opening '/home/user/vnc-hls/hls/lane1/segment_20250603-130931.ts' for writing
[hls @ 0x598085fa0480] Opening '/home/user/vnc-hls/hls/lane1/stream.m3u8.tmp' for writing
frame= 1146 fps= 10 q=-0.0 size=N/A time=00:01:54.50 bitrate=N/A speed=   1x    frame= 1151 fps= 10 q=-0.0 size=N/A time=00:01:55.00 bitrate=N/A speed=   1x    frame= 1156 fps= 10 q=-0.0 size=N/A time=00:01:55.50 bitrate=N/A speed=   1x    frame= 1162 fps= 10 q=-0.0 size=N/A time=00:01:56.10 bitrate=N/A speed=   1x    frame= 1167 fps= 10 q=-0.0 size=N/A time=00:01:56.60 bitrate=N/A speed=   1x    [hls @ 0x598085fa0480] Opening '/home/user/vnc-hls/hls/lane1/segment_20250603-130937.ts' for writing
[hls @ 0x598085fa0480] Opening '/home/user/vnc-hls/hls/lane1/stream.m3u8.tmp' for writing
frame= 1172 fps= 10 q=-0.0 size=N/A time=00:01:57.10 bitrate=N/A speed=   1x    frame= 1178 fps= 10 q=-0.0 size=N/A time=00:01:57.70 bitrate=N/A speed=   1x    frame= 1183 fps= 10 q=-0.0 size=N/A time=00:01:58.20 bitrate=N/A speed=   1x    frame= 1188 fps= 10 q=-0.0 size=N/A time=00:01:58.70 bitrate=N/A speed=   1x    frame= 1193 fps= 10 q=-0.0 size=N/A time=00:01:59.20 bitrate=N/A speed=   1x    frame= 1198 fps= 10 q=-0.0 size=N/A time=00:01:59.70 bitrate=N/A speed=   1x    [hls @ 0x598085fa0480] Opening '/home/user/vnc-hls/hls/lane1/segment_20250603-130940.ts' for writing
[hls @ 0x598085fa0480] Opening '/home/user/vnc-hls/hls/lane1/stream.m3u8.tmp' for writing
frame= 1204 fps= 10 q=-0.0 size=N/A time=00:02:00.30 bitrate=N/A speed=   1x    frame= 1209 fps= 10 q=-0.0 size=N/A time=00:02:00.80 bitrate=N/A speed=   1x    frame= 1215 fps= 10 q=-0.0 size=N/A time=00:02:01.40 bitrate=N/A speed=   1x    frame= 1221 fps= 10 q=-0.0 size=N/A time=00:02:02.00 bitrate=N/A speed=   1x    frame= 1226 fps= 10 q=-0.0 size=N/A time=00:02:02.50 bitrate=N/A speed=   1x    frame= 1232 fps= 10 q=-0.0 size=N/A time=00:02:03.10 bitrate=N/A speed=   1x    frame= 1237 fps= 10 q=-0.0 size=N/A time=00:02:03.60 bitrate=N/A speed=   1x    frame= 1242 fps= 10 q=-0.0 size=N/A time=00:02:04.10 bitrate=N/A speed=   1x    frame= 1247 fps= 10 q=-0.0 size=N/A time=00:02:04.60 bitrate=N/A speed=   1x    frame= 1253 fps= 10 q=-0.0 size=N/A time=00:02:05.20 bitrate=N/A speed=   1x    frame= 1259 fps= 10 q=-0.0 size=N/A time=00:02:05.80 bitrate=N/A speed=   1x    [hls @ 0x598085fa0480] Opening '/home/user/vnc-hls/hls/lane1/segment_20250603-130943.ts' for writing
[hls @ 0x598085fa0480] Opening '/home/user/vnc-hls/hls/lane1/stream.m3u8.tmp' for writing
frame= 1264 fps= 10 q=-0.0 size=N/A time=00:02:06.30 bitrate=N/A speed=   1x    frame= 1270 fps= 10 q=-0.0 size=N/A time=00:02:06.90 bitrate=N/A speed=   1x    frame= 1275 fps= 10 q=-0.0 size=N/A time=00:02:07.40 bitrate=N/A speed=   1x    frame= 1281 fps= 10 q=-0.0 size=N/A time=00:02:08.00 bitrate=N/A speed=   1x    frame= 1287 fps= 10 q=-0.0 size=N/A time=00:02:08.60 bitrate=N/A speed=   1x    [hls @ 0x598085fa0480] Opening '/home/user/vnc-hls/hls/lane1/segment_20250603-130949.ts' for writing
[hls @ 0x598085fa0480] Opening '/home/user/vnc-hls/hls/lane1/stream.m3u8.tmp' for writing
frame= 1292 fps= 10 q=-0.0 size=N/A time=00:02:09.10 bitrate=N/A speed=   1x    frame= 1298 fps= 10 q=-0.0 size=N/A time=00:02:09.70 bitrate=N/A speed=   1x    frame= 1304 fps= 10 q=-0.0 size=N/A time=00:02:10.30 bitrate=N/A speed=   1x    frame= 1310 fps= 10 q=-0.0 size=N/A time=00:02:10.90 bitrate=N/A speed=   1x    frame= 1316 fps= 10 q=-0.0 size=N/A time=00:02:11.50 bitrate=N/A speed=   1x    [hls @ 0x598085fa0480] Opening '/home/user/vnc-hls/hls/lane1/segment_20250603-130952.ts' for writing
[hls @ 0x598085fa0480] Opening '/home/user/vnc-hls/hls/lane1/stream.m3u8.tmp' for writing
frame= 1322 fps= 10 q=-0.0 size=N/A time=00:02:12.10 bitrate=N/A speed=   1x    frame= 1327 fps= 10 q=-0.0 size=N/A time=00:02:12.60 bitrate=N/A speed=   1x    frame= 1333 fps= 10 q=-0.0 size=N/A time=00:02:13.20 bitrate=N/A speed=   1x    frame= 1339 fps= 10 q=-0.0 size=N/A time=00:02:13.80 bitrate=N/A speed=   1x    frame= 1344 fps= 10 q=-0.0 size=N/A time=00:02:14.30 bitrate=N/A speed=   1x    frame= 1349 fps= 10 q=-0.0 size=N/A time=00:02:14.80 bitrate=N/A speed=   1x    frame= 1355 fps= 10 q=-0.0 size=N/A time=00:02:15.40 bitrate=N/A speed=   1x    frame= 1361 fps= 10 q=-0.0 size=N/A time=00:02:16.00 bitrate=N/A speed=   1x    frame= 1366 fps= 10 q=-0.0 size=N/A time=00:02:16.50 bitrate=N/A speed=   1x    frame= 1372 fps= 10 q=-0.0 size=N/A time=00:02:17.10 bitrate=N/A speed=   1x    frame= 1378 fps= 10 q=-0.0 size=N/A time=00:02:17.70 bitrate=N/A speed=   1x    [hls @ 0x598085fa0480] Opening '/home/user/vnc-hls/hls/lane1/segment_20250603-130955.ts' for writing
[hls @ 0x598085fa0480] Opening '/home/user/vnc-hls/hls/lane1/stream.m3u8.tmp' for writing
frame= 1383 fps= 10 q=-0.0 size=N/A time=00:02:18.20 bitrate=N/A speed=   1x    frame= 1388 fps= 10 q=-0.0 size=N/A time=00:02:18.70 bitrate=N/A speed=   1x    frame= 1394 fps= 10 q=-0.0 size=N/A time=00:02:19.30 bitrate=N/A speed=   1x    frame= 1399 fps= 10 q=-0.0 size=N/A time=00:02:19.80 bitrate=N/A speed=   1x    frame= 1404 fps= 10 q=-0.0 size=N/A time=00:02:20.30 bitrate=N/A speed=   1x    frame= 1410 fps= 10 q=-0.0 size=N/A time=00:02:20.90 bitrate=N/A speed=   1x    [hls @ 0x598085fa0480] Opening '/home/user/vnc-hls/hls/lane1/segment_20250603-131001.ts' for writing
[hls @ 0x598085fa0480] Opening '/home/user/vnc-hls/hls/lane1/stream.m3u8.tmp' for writing
frame= 1416 fps= 10 q=-0.0 size=N/A time=00:02:21.50 bitrate=N/A speed=   1x    frame= 1422 fps= 10 q=-0.0 size=N/A time=00:02:22.10 bitrate=N/A speed=   1x    frame= 1427 fps= 10 q=-0.0 size=N/A time=00:02:22.60 bitrate=N/A speed=   1x    frame= 1433 fps= 10 q=-0.0 size=N/A time=00:02:23.20 bitrate=N/A speed=   1x    frame= 1438 fps= 10 q=-0.0 size=N/A time=00:02:23.70 bitrate=N/A speed=   1x    [hls @ 0x598085fa0480] Opening '/home/user/vnc-hls/hls/lane1/segment_20250603-131004.ts' for writing
[hls @ 0x598085fa0480] Opening '/home/user/vnc-hls/hls/lane1/stream.m3u8.tmp' for writing
frame= 1444 fps= 10 q=-0.0 size=N/A time=00:02:24.30 bitrate=N/A speed=   1x    frame= 1450 fps= 10 q=-0.0 size=N/A time=00:02:24.90 bitrate=N/A speed=   1x    frame= 1455 fps= 10 q=-0.0 size=N/A time=00:02:25.40 bitrate=N/A speed=   1x    frame= 1461 fps= 10 q=-0.0 size=N/A time=00:02:26.00 bitrate=N/A speed=   1x    frame= 1467 fps= 10 q=-0.0 size=N/A time=00:02:26.60 bitrate=N/A speed=   1x    frame= 1473 fps= 10 q=-0.0 size=N/A time=00:02:27.20 bitrate=N/A speed=   1x    frame= 1478 fps= 10 q=-0.0 size=N/A time=00:02:27.70 bitrate=N/A speed=   1x    frame= 1484 fps= 10 q=-0.0 size=N/A time=00:02:28.30 bitrate=N/A speed=   1x    frame= 1490 fps= 10 q=-0.0 size=N/A time=00:02:28.90 bitrate=N/A speed=   1x    frame= 1496 fps= 10 q=-0.0 size=N/A time=00:02:29.50 bitrate=N/A speed=   1x    [hls @ 0x598085fa0480] Opening '/home/user/vnc-hls/hls/lane1/segment_20250603-131007.ts' for writing
[hls @ 0x598085fa0480] Opening '/home/user/vnc-hls/hls/lane1/stream.m3u8.tmp' for writing
frame= 1502 fps= 10 q=-0.0 size=N/A time=00:02:30.10 bitrate=N/A speed=   1x    frame= 1508 fps= 10 q=-0.0 size=N/A time=00:02:30.70 bitrate=N/A speed=   1x    frame= 1514 fps= 10 q=-0.0 size=N/A time=00:02:31.30 bitrate=N/A speed=   1x    frame= 1520 fps= 10 q=-0.0 size=N/A time=00:02:31.90 bitrate=N/A speed=   1x    frame= 1526 fps= 10 q=-0.0 size=N/A time=00:02:32.50 bitrate=N/A speed=   1x    [hls @ 0x598085fa0480] Opening '/home/user/vnc-hls/hls/lane1/segment_20250603-131013.ts' for writing
[hls @ 0x598085fa0480] Opening '/home/user/vnc-hls/hls/lane1/stream.m3u8.tmp' for writing
frame= 1532 fps= 10 q=-0.0 size=N/A time=00:02:33.10 bitrate=N/A speed=   1x    frame= 1538 fps= 10 q=-0.0 size=N/A time=00:02:33.70 bitrate=N/A speed=   1x    frame= 1544 fps= 10 q=-0.0 size=N/A time=00:02:34.30 bitrate=N/A speed=   1x    frame= 1550 fps= 10 q=-0.0 size=N/A time=00:02:34.90 bitrate=N/A speed=   1x    frame= 1555 fps= 10 q=-0.0 size=N/A time=00:02:35.40 bitrate=N/A speed=   1x    frame= 1560 fps= 10 q=-0.0 size=N/A time=00:02:35.90 bitrate=N/A speed=   1x    [hls @ 0x598085fa0480] Opening '/home/user/vnc-hls/hls/lane1/segment_20250603-131016.ts' for writing
[hls @ 0x598085fa0480] Opening '/home/user/vnc-hls/hls/lane1/stream.m3u8.tmp' for writing
frame= 1566 fps= 10 q=-0.0 size=N/A time=00:02:36.50 bitrate=N/A speed=   1x    frame= 1571 fps= 10 q=-0.0 size=N/A time=00:02:37.00 bitrate=N/A speed=   1x    frame= 1576 fps= 10 q=-0.0 size=N/A time=00:02:37.50 bitrate=N/A speed=   1x    frame= 1582 fps= 10 q=-0.0 size=N/A time=00:02:38.10 bitrate=N/A speed=   1x    frame= 1588 fps= 10 q=-0.0 size=N/A time=00:02:38.70 bitrate=N/A speed=   1x    frame= 1593 fps= 10 q=-0.0 size=N/A time=00:02:39.20 bitrate=N/A speed=   1x    frame= 1600 fps= 10 q=-0.0 size=N/A time=00:02:39.80 bitrate=N/A speed=   1x    frame= 1605 fps= 10 q=-0.0 size=N/A time=00:02:40.40 bitrate=N/A speed=   1x    frame= 1610 fps= 10 q=-0.0 size=N/A time=00:02:40.90 bitrate=N/A speed=   1x    frame= 1616 fps= 10 q=-0.0 size=N/A time=00:02:41.50 bitrate=N/A speed=   1x    [hls @ 0x598085fa0480] Opening '/home/user/vnc-hls/hls/lane1/segment_20250603-131019.ts' for writing
[hls @ 0x598085fa0480] Opening '/home/user/vnc-hls/hls/lane1/stream.m3u8.tmp' for writing
frame= 1621 fps= 10 q=-0.0 size=N/A time=00:02:42.00 bitrate=N/A speed=   1x    frame= 1627 fps= 10 q=-0.0 size=N/A time=00:02:42.60 bitrate=N/A speed=   1x    frame= 1632 fps= 10 q=-0.0 size=N/A time=00:02:43.10 bitrate=N/A speed=   1x    frame= 1638 fps= 10 q=-0.0 size=N/A time=00:02:43.70 bitrate=N/A speed=   1x    frame= 1643 fps= 10 q=-0.0 size=N/A time=00:02:44.20 bitrate=N/A speed=   1x    frame= 1649 fps= 10 q=-0.0 size=N/A time=00:02:44.80 bitrate=N/A speed=   1x    [hls @ 0x598085fa0480] Opening '/home/user/vnc-hls/hls/lane1/segment_20250603-131025.ts' for writing
[hls @ 0x598085fa0480] Opening '/home/user/vnc-hls/hls/lane1/stream.m3u8.tmp' for writing
frame= 1655 fps= 10 q=-0.0 size=N/A time=00:02:45.40 bitrate=N/A speed=   1x    frame= 1661 fps= 10 q=-0.0 size=N/A time=00:02:46.00 bitrate=N/A speed=   1x    frame= 1666 fps= 10 q=-0.0 size=N/A time=00:02:46.50 bitrate=N/A speed=   1x    frame= 1671 fps= 10 q=-0.0 size=N/A time=00:02:47.00 bitrate=N/A speed=   1x    frame= 1676 fps= 10 q=-0.0 size=N/A time=00:02:47.50 bitrate=N/A speed=   1x    [hls @ 0x598085fa0480] Opening '/home/user/vnc-hls/hls/lane1/segment_20250603-131028.ts' for writing
[hls @ 0x598085fa0480] Opening '/home/user/vnc-hls/hls/lane1/stream.m3u8.tmp' for writing
frame= 1682 fps= 10 q=-0.0 size=N/A time=00:02:48.10 bitrate=N/A speed=   1x    frame= 1687 fps= 10 q=-0.0 size=N/A time=00:02:48.60 bitrate=N/A speed=   1x    frame= 1693 fps= 10 q=-0.0 size=N/A time=00:02:49.20 bitrate=N/A speed=   1x    frame= 1698 fps= 10 q=-0.0 size=N/A time=00:02:49.70 bitrate=N/A speed=   1x    frame= 1703 fps= 10 q=-0.0 size=N/A time=00:02:50.20 bitrate=N/A speed=   1x    frame= 1709 fps= 10 q=-0.0 size=N/A time=00:02:50.80 bitrate=N/A speed=   1x    frame= 1714 fps= 10 q=-0.0 size=N/A time=00:02:51.30 bitrate=N/A speed=   1x    frame= 1720 fps= 10 q=-0.0 size=N/A time=00:02:51.90 bitrate=N/A speed=   1x    frame= 1726 fps= 10 q=-0.0 size=N/A time=00:02:52.50 bitrate=N/A speed=   1x    frame= 1731 fps= 10 q=-0.0 size=N/A time=00:02:53.00 bitrate=N/A speed=   1x    frame= 1736 fps= 10 q=-0.0 size=N/A time=00:02:53.50 bitrate=N/A speed=   1x    [hls @ 0x598085fa0480] Opening '/home/user/vnc-hls/hls/lane1/segment_20250603-131031.ts' for writing
[hls @ 0x598085fa0480] Opening '/home/user/vnc-hls/hls/lane1/stream.m3u8.tmp' for writing
frame= 1741 fps= 10 q=-0.0 size=N/A time=00:02:54.00 bitrate=N/A speed=   1x    frame= 1747 fps= 10 q=-0.0 size=N/A time=00:02:54.60 bitrate=N/A speed=   1x    frame= 1752 fps= 10 q=-0.0 size=N/A time=00:02:55.10 bitrate=N/A speed=   1x    frame= 1757 fps= 10 q=-0.0 size=N/A time=00:02:55.60 bitrate=N/A speed=   1x    frame= 1763 fps= 10 q=-0.0 size=N/A time=00:02:56.20 bitrate=N/A speed=   1x    frame= 1769 fps= 10 q=-0.0 size=N/A time=00:02:56.80 bitrate=N/A speed=   1x    [hls @ 0x598085fa0480] Opening '/home/user/vnc-hls/hls/lane1/segment_20250603-131037.ts' for writing
[hls @ 0x598085fa0480] Opening '/home/user/vnc-hls/hls/lane1/stream.m3u8.tmp' for writing
frame= 1774 fps= 10 q=-0.0 size=N/A time=00:02:57.30 bitrate=N/A speed=   1x    frame= 1780 fps= 10 q=-0.0 size=N/A time=00:02:57.90 bitrate=N/A speed=   1x    frame= 1786 fps= 10 q=-0.0 size=N/A time=00:02:58.50 bitrate=N/A speed=   1x    frame= 1792 fps= 10 q=-0.0 size=N/A time=00:02:59.10 bitrate=N/A speed=   1x    frame= 1798 fps= 10 q=-0.0 size=N/A time=00:02:59.70 bitrate=N/A speed=   1x    [hls @ 0x598085fa0480] Opening '/home/user/vnc-hls/hls/lane1/segment_20250603-131040.ts' for writing
[hls @ 0x598085fa0480] Opening '/home/user/vnc-hls/hls/lane1/stream.m3u8.tmp' for writing
frame= 1804 fps= 10 q=-0.0 size=N/A time=00:03:00.30 bitrate=N/A speed=   1x    frame= 1810 fps= 10 q=-0.0 size=N/A time=00:03:00.90 bitrate=N/A speed=   1x    frame= 1815 fps= 10 q=-0.0 size=N/A time=00:03:01.40 bitrate=N/A speed=   1x    frame= 1821 fps= 10 q=-0.0 size=N/A time=00:03:02.00 bitrate=N/A speed=   1x    frame= 1826 fps= 10 q=-0.0 size=N/A time=00:03:02.50 bitrate=N/A speed=   1x    frame= 1831 fps= 10 q=-0.0 size=N/A time=00:03:03.00 bitrate=N/A speed=   1x    frame= 1837 fps= 10 q=-0.0 size=N/A time=00:03:03.60 bitrate=N/A speed=   1x    frame= 1842 fps= 10 q=-0.0 size=N/A time=00:03:04.10 bitrate=N/A speed=   1x    frame= 1847 fps= 10 q=-0.0 size=N/A time=00:03:04.60 bitrate=N/A speed=   1x    frame= 1852 fps= 10 q=-0.0 size=N/A time=00:03:05.10 bitrate=N/A speed=   1x    frame= 1858 fps= 10 q=-0.0 size=N/A time=00:03:05.70 bitrate=N/A speed=   1x    [hls @ 0x598085fa0480] Opening '/home/user/vnc-hls/hls/lane1/segment_20250603-131043.ts' for writing
[hls @ 0x598085fa0480] Opening '/home/user/vnc-hls/hls/lane1/stream.m3u8.tmp' for writing
frame= 1864 fps= 10 q=-0.0 size=N/A time=00:03:06.30 bitrate=N/A speed=   1x    frame= 1870 fps= 10 q=-0.0 size=N/A time=00:03:06.90 bitrate=N/A speed=   1x    frame= 1877 fps= 10 q=-0.0 size=N/A time=00:03:07.50 bitrate=N/A speed=   1x    frame= 1881 fps= 10 q=-0.0 size=N/A time=00:03:08.00 bitrate=N/A speed=   1x    frame= 1886 fps= 10 q=-0.0 size=N/A time=00:03:08.50 bitrate=N/A speed=   1x    [hls @ 0x598085fa0480] Opening '/home/user/vnc-hls/hls/lane1/segment_20250603-131049.ts' for writing
[hls @ 0x598085fa0480] Opening '/home/user/vnc-hls/hls/lane1/stream.m3u8.tmp' for writing
frame= 1891 fps= 10 q=-0.0 size=N/A time=00:03:09.00 bitrate=N/A speed=   1x    frame= 1896 fps= 10 q=-0.0 size=N/A time=00:03:09.50 bitrate=N/A speed=   1x    frame= 1902 fps= 10 q=-0.0 size=N/A time=00:03:10.10 bitrate=N/A speed=   1x    frame= 1907 fps= 10 q=-0.0 size=N/A time=00:03:10.60 bitrate=N/A speed=   1x    frame= 1912 fps= 10 q=-0.0 size=N/A time=00:03:11.10 bitrate=N/A speed=   1x    frame= 1917 fps= 10 q=-0.0 size=N/A time=00:03:11.60 bitrate=N/A speed=   1x    [hls @ 0x598085fa0480] Opening '/home/user/vnc-hls/hls/lane1/segment_20250603-131052.ts' for writing
[hls @ 0x598085fa0480] Opening '/home/user/vnc-hls/hls/lane1/stream.m3u8.tmp' for writing
frame= 1923 fps= 10 q=-0.0 size=N/A time=00:03:12.20 bitrate=N/A speed=   1x    frame= 1928 fps= 10 q=-0.0 size=N/A time=00:03:12.70 bitrate=N/A speed=   1x    frame= 1934 fps= 10 q=-0.0 size=N/A time=00:03:13.30 bitrate=N/A speed=   1x    frame= 1939 fps= 10 q=-0.0 size=N/A time=00:03:13.80 bitrate=N/A speed=   1x    frame= 1944 fps= 10 q=-0.0 size=N/A time=00:03:14.30 bitrate=N/A speed=   1x    frame= 1949 fps= 10 q=-0.0 size=N/A time=00:03:14.80 bitrate=N/A speed=   1x    frame= 1955 fps= 10 q=-0.0 size=N/A time=00:03:15.40 bitrate=N/A speed=   1x    frame= 1960 fps= 10 q=-0.0 size=N/A time=00:03:15.90 bitrate=N/A speed=   1x    frame= 1965 fps= 10 q=-0.0 size=N/A time=00:03:16.40 bitrate=N/A speed=   1x    frame= 1971 fps= 10 q=-0.0 size=N/A time=00:03:17.00 bitrate=N/A speed=   1x    frame= 1976 fps= 10 q=-0.0 size=N/A time=00:03:17.50 bitrate=N/A speed=   1x    [hls @ 0x598085fa0480] Opening '/home/user/vnc-hls/hls/lane1/segment_20250603-131055.ts' for writing
[hls @ 0x598085fa0480] Opening '/home/user/vnc-hls/hls/lane1/stream.m3u8.tmp' for writing
frame= 1981 fps= 10 q=-0.0 size=N/A time=00:03:18.00 bitrate=N/A speed=   1x    frame= 1987 fps= 10 q=-0.0 size=N/A time=00:03:18.60 bitrate=N/A speed=   1x    frame= 1993 fps= 10 q=-0.0 size=N/A time=00:03:19.20 bitrate=N/A speed=   1x    frame= 1998 fps= 10 q=-0.0 size=N/A time=00:03:19.70 bitrate=N/A speed=   1x    frame= 2004 fps= 10 q=-0.0 size=N/A time=00:03:20.30 bitrate=N/A speed=   1x    frame= 2010 fps= 10 q=-0.0 size=N/A time=00:03:20.90 bitrate=N/A speed=   1x    [hls @ 0x598085fa0480] Opening '/home/user/vnc-hls/hls/lane1/segment_20250603-131101.ts' for writing
[hls @ 0x598085fa0480] Opening '/home/user/vnc-hls/hls/lane1/stream.m3u8.tmp' for writing
frame= 2015 fps= 10 q=-0.0 size=N/A time=00:03:21.40 bitrate=N/A speed=   1x    frame= 2021 fps= 10 q=-0.0 size=N/A time=00:03:22.00 bitrate=N/A speed=   1x    frame= 2027 fps= 10 q=-0.0 size=N/A time=00:03:22.60 bitrate=N/A speed=   1x    frame= 2032 fps= 10 q=-0.0 size=N/A time=00:03:23.10 bitrate=N/A speed=   1x    frame= 2038 fps= 10 q=-0.0 size=N/A time=00:03:23.70 bitrate=N/A speed=   1x    [hls @ 0x598085fa0480] Opening '/home/user/vnc-hls/hls/lane1/segment_20250603-131104.ts' for writing
[hls @ 0x598085fa0480] Opening '/home/user/vnc-hls/hls/lane1/stream.m3u8.tmp' for writing
frame= 2043 fps= 10 q=-0.0 size=N/A time=00:03:24.20 bitrate=N/A speed=   1x    frame= 2049 fps= 10 q=-0.0 size=N/A time=00:03:24.80 bitrate=N/A speed=   1x    frame= 2054 fps= 10 q=-0.0 size=N/A time=00:03:25.30 bitrate=N/A speed=   1x    frame= 2060 fps= 10 q=-0.0 size=N/A time=00:03:25.90 bitrate=N/A speed=   1x    frame= 2065 fps= 10 q=-0.0 size=N/A time=00:03:26.40 bitrate=N/A speed=   1x    frame= 2071 fps= 10 q=-0.0 size=N/A time=00:03:27.00 bitrate=N/A speed=   1x    frame= 2077 fps= 10 q=-0.0 size=N/A time=00:03:27.60 bitrate=N/A speed=   1x    frame= 2083 fps= 10 q=-0.0 size=N/A time=00:03:28.20 bitrate=N/A speed=   1x    frame= 2088 fps= 10 q=-0.0 size=N/A time=00:03:28.70 bitrate=N/A speed=   1x    frame= 2094 fps= 10 q=-0.0 size=N/A time=00:03:29.30 bitrate=N/A speed=   1x    frame= 2100 fps= 10 q=-0.0 size=N/A time=00:03:29.90 bitrate=N/A speed=   1x    [hls @ 0x598085fa0480] Opening '/home/user/vnc-hls/hls/lane1/segment_20250603-131107.ts' for writing
[hls @ 0x598085fa0480] Opening '/home/user/vnc-hls/hls/lane1/stream.m3u8.tmp' for writing
frame= 2106 fps= 10 q=-0.0 size=N/A time=00:03:30.50 bitrate=N/A speed=   1x    frame= 2111 fps= 10 q=-0.0 size=N/A time=00:03:31.00 bitrate=N/A speed=   1x    frame= 2117 fps= 10 q=-0.0 size=N/A time=00:03:31.60 bitrate=N/A speed=   1x    frame= 2124 fps= 10 q=-0.0 size=N/A time=00:03:32.20 bitrate=N/A speed=   1x    frame= 2129 fps= 10 q=-0.0 size=N/A time=00:03:32.80 bitrate=N/A speed=   1x    [hls @ 0x598085fa0480] Opening '/home/user/vnc-hls/hls/lane1/segment_20250603-131113.ts' for writing
[hls @ 0x598085fa0480] Opening '/home/user/vnc-hls/hls/lane1/stream.m3u8.tmp' for writing
frame= 2134 fps= 10 q=-0.0 size=N/A time=00:03:33.30 bitrate=N/A speed=   1x    frame= 2140 fps= 10 q=-0.0 size=N/A time=00:03:33.90 bitrate=N/A speed=   1x    frame= 2145 fps= 10 q=-0.0 size=N/A time=00:03:34.40 bitrate=N/A speed=   1x    frame= 2150 fps= 10 q=-0.0 size=N/A time=00:03:34.90 bitrate=N/A speed=   1x    frame= 2156 fps= 10 q=-0.0 size=N/A time=00:03:35.50 bitrate=N/A speed=   1x    [hls @ 0x598085fa0480] Opening '/home/user/vnc-hls/hls/lane1/segment_20250603-131116.ts' for writing
[hls @ 0x598085fa0480] Opening '/home/user/vnc-hls/hls/lane1/stream.m3u8.tmp' for writing
frame= 2162 fps= 10 q=-0.0 size=N/A time=00:03:36.10 bitrate=N/A speed=   1x    frame= 2168 fps= 10 q=-0.0 size=N/A time=00:03:36.70 bitrate=N/A speed=   1x    frame= 2174 fps= 10 q=-0.0 size=N/A time=00:03:37.30 bitrate=N/A speed=   1x    frame= 2179 fps= 10 q=-0.0 size=N/A time=00:03:37.80 bitrate=N/A speed=   1x    frame= 2185 fps= 10 q=-0.0 size=N/A time=00:03:38.40 bitrate=N/A speed=   1x    frame= 2191 fps= 10 q=-0.0 size=N/A time=00:03:39.00 bitrate=N/A speed=   1x    frame= 2196 fps= 10 q=-0.0 size=N/A time=00:03:39.50 bitrate=N/A speed=   1x    frame= 2202 fps= 10 q=-0.0 size=N/A time=00:03:40.10 bitrate=N/A speed=   1x    frame= 2207 fps= 10 q=-0.0 size=N/A time=00:03:40.60 bitrate=N/A speed=   1x    frame= 2213 fps= 10 q=-0.0 size=N/A time=00:03:41.20 bitrate=N/A speed=   1x    frame= 2219 fps= 10 q=-0.0 size=N/A time=00:03:41.80 bitrate=N/A speed=   1x    [hls @ 0x598085fa0480] Opening '/home/user/vnc-hls/hls/lane1/segment_20250603-131119.ts' for writing
[hls @ 0x598085fa0480] Opening '/home/user/vnc-hls/hls/lane1/stream.m3u8.tmp' for writing
frame= 2224 fps= 10 q=-0.0 size=N/A time=00:03:42.30 bitrate=N/A speed=   1x    frame= 2230 fps= 10 q=-0.0 size=N/A time=00:03:42.90 bitrate=N/A speed=   1x    frame= 2236 fps= 10 q=-0.0 size=N/A time=00:03:43.50 bitrate=N/A speed=   1x    frame= 2241 fps= 10 q=-0.0 size=N/A time=00:03:44.00 bitrate=N/A speed=   1x    frame= 2247 fps= 10 q=-0.0 size=N/A time=00:03:44.60 bitrate=N/A speed=   1x    [hls @ 0x598085fa0480] Opening '/home/user/vnc-hls/hls/lane1/segment_20250603-131125.ts' for writing
[hls @ 0x598085fa0480] Opening '/home/user/vnc-hls/hls/lane1/stream.m3u8.tmp' for writing
frame= 2252 fps= 10 q=-0.0 size=N/A time=00:03:45.10 bitrate=N/A speed=   1x    frame= 2258 fps= 10 q=-0.0 size=N/A time=00:03:45.70 bitrate=N/A speed=   1x    frame= 2264 fps= 10 q=-0.0 size=N/A time=00:03:46.30 bitrate=N/A speed=   1x    frame= 2269 fps= 10 q=-0.0 size=N/A time=00:03:46.80 bitrate=N/A speed=   1x    frame= 2275 fps= 10 q=-0.0 size=N/A time=00:03:47.40 bitrate=N/A speed=   1x    frame= 2280 fps= 10 q=-0.0 size=N/A time=00:03:47.90 bitrate=N/A speed=   1x    [hls @ 0x598085fa0480] Opening '/home/user/vnc-hls/hls/lane1/segment_20250603-131128.ts' for writing
[hls @ 0x598085fa0480] Opening '/home/user/vnc-hls/hls/lane1/stream.m3u8.tmp' for writing
frame= 2285 fps= 10 q=-0.0 size=N/A time=00:03:48.40 bitrate=N/A speed=   1x    frame= 2291 fps= 10 q=-0.0 size=N/A time=00:03:49.00 bitrate=N/A speed=   1x    frame= 2296 fps= 10 q=-0.0 size=N/A time=00:03:49.50 bitrate=N/A speed=   1x    frame= 2302 fps= 10 q=-0.0 size=N/A time=00:03:50.10 bitrate=N/A speed=   1x    frame= 2307 fps= 10 q=-0.0 size=N/A time=00:03:50.60 bitrate=N/A speed=   1x    frame= 2313 fps= 10 q=-0.0 size=N/A time=00:03:51.20 bitrate=N/A speed=   1x    frame= 2318 fps= 10 q=-0.0 size=N/A time=00:03:51.70 bitrate=N/A speed=   1x    frame= 2323 fps= 10 q=-0.0 size=N/A time=00:03:52.20 bitrate=N/A speed=   1x    frame= 2329 fps= 10 q=-0.0 size=N/A time=00:03:52.80 bitrate=N/A speed=   1x    frame= 2335 fps= 10 q=-0.0 size=N/A time=00:03:53.40 bitrate=N/A speed=   1x    frame= 2340 fps= 10 q=-0.0 size=N/A time=00:03:53.90 bitrate=N/A speed=   1x    [hls @ 0x598085fa0480] Opening '/home/user/vnc-hls/hls/lane1/segment_20250603-131131.ts' for writing
[hls @ 0x598085fa0480] Opening '/home/user/vnc-hls/hls/lane1/stream.m3u8.tmp' for writing
frame= 2346 fps= 10 q=-0.0 size=N/A time=00:03:54.50 bitrate=N/A speed=   1x    frame= 2352 fps= 10 q=-0.0 size=N/A time=00:03:55.10 bitrate=N/A speed=   1x    frame= 2357 fps= 10 q=-0.0 size=N/A time=00:03:55.60 bitrate=N/A speed=   1x    frame= 2363 fps= 10 q=-0.0 size=N/A time=00:03:56.20 bitrate=N/A speed=   1x    frame= 2368 fps= 10 q=-0.0 size=N/A time=00:03:56.70 bitrate=N/A speed=   1x    [hls @ 0x598085fa0480] Opening '/home/user/vnc-hls/hls/lane1/segment_20250603-131137.ts' for writing
[hls @ 0x598085fa0480] Opening '/home/user/vnc-hls/hls/lane1/stream.m3u8.tmp' for writing
frame= 2374 fps= 10 q=-0.0 size=N/A time=00:03:57.30 bitrate=N/A speed=   1x    frame= 2380 fps= 10 q=-0.0 size=N/A time=00:03:57.90 bitrate=N/A speed=   1x    frame= 2386 fps= 10 q=-0.0 size=N/A time=00:03:58.50 bitrate=N/A speed=   1x    frame= 2391 fps= 10 q=-0.0 size=N/A time=00:03:59.00 bitrate=N/A speed=   1x    frame= 2396 fps= 10 q=-0.0 size=N/A time=00:03:59.50 bitrate=N/A speed=   1x    [hls @ 0x598085fa0480] Opening '/home/user/vnc-hls/hls/lane1/segment_20250603-131140.ts' for writing
[hls @ 0x598085fa0480] Opening '/home/user/vnc-hls/hls/lane1/stream.m3u8.tmp' for writing
frame= 2401 fps= 10 q=-0.0 size=N/A time=00:04:00.00 bitrate=N/A speed=   1x    frame= 2407 fps= 10 q=-0.0 size=N/A time=00:04:00.60 bitrate=N/A speed=   1x    frame= 2413 fps= 10 q=-0.0 size=N/A time=00:04:01.20 bitrate=N/A speed=   1x    frame= 2419 fps= 10 q=-0.0 size=N/A time=00:04:01.80 bitrate=N/A speed=   1x    frame= 2425 fps= 10 q=-0.0 size=N/A time=00:04:02.40 bitrate=N/A speed=   1x    frame= 2431 fps= 10 q=-0.0 size=N/A time=00:04:03.00 bitrate=N/A speed=   1x    frame= 2437 fps= 10 q=-0.0 size=N/A time=00:04:03.60 bitrate=N/A speed=   1x    frame= 2442 fps= 10 q=-0.0 size=N/A time=00:04:04.10 bitrate=N/A speed=   1x    frame= 2448 fps= 10 q=-0.0 size=N/A time=00:04:04.70 bitrate=N/A speed=   1x    frame= 2454 fps= 10 q=-0.0 size=N/A time=00:04:05.30 bitrate=N/A speed=   1x    frame= 2459 fps= 10 q=-0.0 size=N/A time=00:04:05.80 bitrate=N/A speed=   1x    [hls @ 0x598085fa0480] Opening '/home/user/vnc-hls/hls/lane1/segment_20250603-131143.ts' for writing
[hls @ 0x598085fa0480] Opening '/home/user/vnc-hls/hls/lane1/stream.m3u8.tmp' for writing
frame= 2465 fps= 10 q=-0.0 size=N/A time=00:04:06.40 bitrate=N/A speed=   1x    frame= 2471 fps= 10 q=-0.0 size=N/A time=00:04:07.00 bitrate=N/A speed=   1x    frame= 2477 fps= 10 q=-0.0 size=N/A time=00:04:07.60 bitrate=N/A speed=   1x    frame= 2483 fps= 10 q=-0.0 size=N/A time=00:04:08.20 bitrate=N/A speed=   1x    frame= 2488 fps= 10 q=-0.0 size=N/A time=00:04:08.70 bitrate=N/A speed=   1x    [hls @ 0x598085fa0480] Opening '/home/user/vnc-hls/hls/lane1/segment_20250603-131149.ts' for writing
[hls @ 0x598085fa0480] Opening '/home/user/vnc-hls/hls/lane1/stream.m3u8.tmp' for writing
frame= 2494 fps= 10 q=-0.0 size=N/A time=00:04:09.30 bitrate=N/A speed=   1x    frame= 2499 fps= 10 q=-0.0 size=N/A time=00:04:09.80 bitrate=N/A speed=   1x    frame= 2505 fps= 10 q=-0.0 size=N/A time=00:04:10.40 bitrate=N/A speed=   1x    frame= 2511 fps= 10 q=-0.0 size=N/A time=00:04:11.00 bitrate=N/A speed=   1x    frame= 2516 fps= 10 q=-0.0 size=N/A time=00:04:11.50 bitrate=N/A speed=   1x    [hls @ 0x598085fa0480] Opening '/home/user/vnc-hls/hls/lane1/segment_20250603-131152.ts' for writing
[hls @ 0x598085fa0480] Opening '/home/user/vnc-hls/hls/lane1/stream.m3u8.tmp' for writing
frame= 2522 fps= 10 q=-0.0 size=N/A time=00:04:12.10 bitrate=N/A speed=   1x    frame= 2528 fps= 10 q=-0.0 size=N/A time=00:04:12.70 bitrate=N/A speed=   1x    frame= 2533 fps= 10 q=-0.0 size=N/A time=00:04:13.20 bitrate=N/A speed=   1x    frame= 2539 fps= 10 q=-0.0 size=N/A time=00:04:13.80 bitrate=N/A speed=   1x    frame= 2545 fps= 10 q=-0.0 size=N/A time=00:04:14.40 bitrate=N/A speed=   1x    frame= 2551 fps= 10 q=-0.0 size=N/A time=00:04:15.00 bitrate=N/A speed=   1x    frame= 2557 fps= 10 q=-0.0 size=N/A time=00:04:15.60 bitrate=N/A speed=   1x    frame= 2562 fps= 10 q=-0.0 size=N/A time=00:04:16.10 bitrate=N/A speed=   1x    frame= 2568 fps= 10 q=-0.0 size=N/A time=00:04:16.70 bitrate=N/A speed=   1x    frame= 2573 fps= 10 q=-0.0 size=N/A time=00:04:17.20 bitrate=N/A speed=   1x    frame= 2578 fps= 10 q=-0.0 size=N/A time=00:04:17.70 bitrate=N/A speed=   1x    [hls @ 0x598085fa0480] Opening '/home/user/vnc-hls/hls/lane1/segment_20250603-131155.ts' for writing
[hls @ 0x598085fa0480] Opening '/home/user/vnc-hls/hls/lane1/stream.m3u8.tmp' for writing
frame= 2584 fps= 10 q=-0.0 size=N/A time=00:04:18.30 bitrate=N/A speed=   1x    frame= 2590 fps= 10 q=-0.0 size=N/A time=00:04:18.90 bitrate=N/A speed=   1x    frame= 2595 fps= 10 q=-0.0 size=N/A time=00:04:19.40 bitrate=N/A speed=   1x    frame= 2601 fps= 10 q=-0.0 size=N/A time=00:04:20.00 bitrate=N/A speed=   1x    frame= 2607 fps= 10 q=-0.0 size=N/A time=00:04:20.60 bitrate=N/A speed=   1x    [hls @ 0x598085fa0480] Opening '/home/user/vnc-hls/hls/lane1/segment_20250603-131201.ts' for writing
[hls @ 0x598085fa0480] Opening '/home/user/vnc-hls/hls/lane1/stream.m3u8.tmp' for writing
frame= 2612 fps= 10 q=-0.0 size=N/A time=00:04:21.10 bitrate=N/A speed=   1x    frame= 2618 fps= 10 q=-0.0 size=N/A time=00:04:21.70 bitrate=N/A speed=   1x    frame= 2624 fps= 10 q=-0.0 size=N/A time=00:04:22.30 bitrate=N/A speed=   1x    frame= 2629 fps= 10 q=-0.0 size=N/A time=00:04:22.80 bitrate=N/A speed=   1x    frame= 2635 fps= 10 q=-0.0 size=N/A time=00:04:23.40 bitrate=N/A speed=   1x    frame= 2640 fps= 10 q=-0.0 size=N/A time=00:04:23.90 bitrate=N/A speed=   1x    [hls @ 0x598085fa0480] Opening '/home/user/vnc-hls/hls/lane1/segment_20250603-131204.ts' for writing
[hls @ 0x598085fa0480] Opening '/home/user/vnc-hls/hls/lane1/stream.m3u8.tmp' for writing
frame= 2645 fps= 10 q=-0.0 size=N/A time=00:04:24.40 bitrate=N/A speed=   1x    frame= 2651 fps= 10 q=-0.0 size=N/A time=00:04:25.00 bitrate=N/A speed=   1x    frame= 2656 fps= 10 q=-0.0 size=N/A time=00:04:25.50 bitrate=N/A speed=   1x    frame= 2662 fps= 10 q=-0.0 size=N/A time=00:04:26.10 bitrate=N/A speed=   1x    frame= 2668 fps= 10 q=-0.0 size=N/A time=00:04:26.70 bitrate=N/A speed=   1x    frame= 2673 fps= 10 q=-0.0 size=N/A time=00:04:27.20 bitrate=N/A speed=   1x    frame= 2679 fps= 10 q=-0.0 size=N/A time=00:04:27.80 bitrate=N/A speed=   1x    frame= 2684 fps= 10 q=-0.0 size=N/A time=00:04:28.30 bitrate=N/A speed=   1x    frame= 2689 fps= 10 q=-0.0 size=N/A time=00:04:28.80 bitrate=N/A speed=   1x    frame= 2695 fps= 10 q=-0.0 size=N/A time=00:04:29.40 bitrate=N/A speed=   1x    frame= 2700 fps= 10 q=-0.0 size=N/A time=00:04:29.90 bitrate=N/A speed=   1x    [hls @ 0x598085fa0480] Opening '/home/user/vnc-hls/hls/lane1/segment_20250603-131207.ts' for writing
[hls @ 0x598085fa0480] Opening '/home/user/vnc-hls/hls/lane1/stream.m3u8.tmp' for writing
frame= 2706 fps= 10 q=-0.0 size=N/A time=00:04:30.50 bitrate=N/A speed=   1x    frame= 2712 fps= 10 q=-0.0 size=N/A time=00:04:31.10 bitrate=N/A speed=   1x    frame= 2718 fps= 10 q=-0.0 size=N/A time=00:04:31.70 bitrate=N/A speed=   1x    frame= 2723 fps= 10 q=-0.0 size=N/A time=00:04:32.20 bitrate=N/A speed=   1x    frame= 2728 fps= 10 q=-0.0 size=N/A time=00:04:32.70 bitrate=N/A speed=   1x    [hls @ 0x598085fa0480] Opening '/home/user/vnc-hls/hls/lane1/segment_20250603-131213.ts' for writing
[hls @ 0x598085fa0480] Opening '/home/user/vnc-hls/hls/lane1/stream.m3u8.tmp' for writing
frame= 2734 fps= 10 q=-0.0 size=N/A time=00:04:33.30 bitrate=N/A speed=   1x    frame= 2740 fps= 10 q=-0.0 size=N/A time=00:04:33.90 bitrate=N/A speed=   1x    frame= 2747 fps= 10 q=-0.0 size=N/A time=00:04:34.50 bitrate=N/A speed=   1x    frame= 2751 fps= 10 q=-0.0 size=N/A time=00:04:35.00 bitrate=N/A speed=   1x    frame= 2757 fps= 10 q=-0.0 size=N/A time=00:04:35.60 bitrate=N/A speed=   1x    [hls @ 0x598085fa0480] Opening '/home/user/vnc-hls/hls/lane1/segment_20250603-131216.ts' for writing
[hls @ 0x598085fa0480] Opening '/home/user/vnc-hls/hls/lane1/stream.m3u8.tmp' for writing
frame= 2763 fps= 10 q=-0.0 size=N/A time=00:04:36.20 bitrate=N/A speed=   1x    frame= 2769 fps= 10 q=-0.0 size=N/A time=00:04:36.80 bitrate=N/A speed=   1x    frame= 2775 fps= 10 q=-0.0 size=N/A time=00:04:37.40 bitrate=N/A speed=   1x    frame= 2780 fps= 10 q=-0.0 size=N/A time=00:04:37.90 bitrate=N/A speed=   1x    frame= 2786 fps= 10 q=-0.0 size=N/A time=00:04:38.50 bitrate=N/A speed=   1x    frame= 2791 fps= 10 q=-0.0 size=N/A time=00:04:39.00 bitrate=N/A speed=   1x    frame= 2797 fps= 10 q=-0.0 size=N/A time=00:04:39.60 bitrate=N/A speed=   1x    frame= 2802 fps= 10 q=-0.0 size=N/A time=00:04:40.10 bitrate=N/A speed=   1x    frame= 2808 fps= 10 q=-0.0 size=N/A time=00:04:40.70 bitrate=N/A speed=   1x    frame= 2813 fps= 10 q=-0.0 size=N/A time=00:04:41.20 bitrate=N/A speed=   1x    frame= 2818 fps= 10 q=-0.0 size=N/A time=00:04:41.70 bitrate=N/A speed=   1x    [hls @ 0x598085fa0480] Opening '/home/user/vnc-hls/hls/lane1/segment_20250603-131219.ts' for writing
[hls @ 0x598085fa0480] Opening '/home/user/vnc-hls/hls/lane1/stream.m3u8.tmp' for writing
frame= 2824 fps= 10 q=-0.0 size=N/A time=00:04:42.30 bitrate=N/A speed=   1x    frame= 2830 fps= 10 q=-0.0 size=N/A time=00:04:42.90 bitrate=N/A speed=   1x    frame= 2835 fps= 10 q=-0.0 size=N/A time=00:04:43.40 bitrate=N/A speed=   1x    frame= 2841 fps= 10 q=-0.0 size=N/A time=00:04:44.00 bitrate=N/A speed=   1x    frame= 2846 fps= 10 q=-0.0 size=N/A time=00:04:44.50 bitrate=N/A speed=   1x    [hls @ 0x598085fa0480] Opening '/home/user/vnc-hls/hls/lane1/segment_20250603-131225.ts' for writing
[hls @ 0x598085fa0480] Opening '/home/user/vnc-hls/hls/lane1/stream.m3u8.tmp' for writing
frame= 2851 fps= 10 q=-0.0 size=N/A time=00:04:45.00 bitrate=N/A speed=   1x    frame= 2857 fps= 10 q=-0.0 size=N/A time=00:04:45.60 bitrate=N/A speed=   1x    frame= 2863 fps= 10 q=-0.0 size=N/A time=00:04:46.20 bitrate=N/A speed=   1x    frame= 2868 fps= 10 q=-0.0 size=N/A time=00:04:46.70 bitrate=N/A speed=   1x    frame= 2873 fps= 10 q=-0.0 size=N/A time=00:04:47.20 bitrate=N/A speed=   1x    frame= 2879 fps= 10 q=-0.0 size=N/A time=00:04:47.80 bitrate=N/A speed=   1x    [hls @ 0x598085fa0480] Opening '/home/user/vnc-hls/hls/lane1/segment_20250603-131228.ts' for writing
[hls @ 0x598085fa0480] Opening '/home/user/vnc-hls/hls/lane1/stream.m3u8.tmp' for writing
frame= 2884 fps= 10 q=-0.0 size=N/A time=00:04:48.30 bitrate=N/A speed=   1x    frame= 2890 fps= 10 q=-0.0 size=N/A time=00:04:48.90 bitrate=N/A speed=   1x    frame= 2896 fps= 10 q=-0.0 size=N/A time=00:04:49.50 bitrate=N/A speed=   1x    frame= 2902 fps= 10 q=-0.0 size=N/A time=00:04:50.10 bitrate=N/A speed=   1x    frame= 2908 fps= 10 q=-0.0 size=N/A time=00:04:50.70 bitrate=N/A speed=   1x    frame= 2913 fps= 10 q=-0.0 size=N/A time=00:04:51.20 bitrate=N/A speed=   1x    frame= 2919 fps= 10 q=-0.0 size=N/A time=00:04:51.80 bitrate=N/A speed=   1x    frame= 2925 fps= 10 q=-0.0 size=N/A time=00:04:52.40 bitrate=N/A speed=   1x    frame= 2930 fps= 10 q=-0.0 size=N/A time=00:04:52.90 bitrate=N/A speed=   1x    frame= 2936 fps= 10 q=-0.0 size=N/A time=00:04:53.50 bitrate=N/A speed=   1x    [hls @ 0x598085fa0480] Opening '/home/user/vnc-hls/hls/lane1/segment_20250603-131231.ts' for writing
[hls @ 0x598085fa0480] Opening '/home/user/vnc-hls/hls/lane1/stream.m3u8.tmp' for writing
frame= 2942 fps= 10 q=-0.0 size=N/A time=00:04:54.10 bitrate=N/A speed=   1x    frame= 2947 fps= 10 q=-0.0 size=N/A time=00:04:54.60 bitrate=N/A speed=   1x    frame= 2952 fps= 10 q=-0.0 size=N/A time=00:04:55.10 bitrate=N/A speed=   1x    frame= 2958 fps= 10 q=-0.0 size=N/A time=00:04:55.70 bitrate=N/A speed=   1x    frame= 2964 fps= 10 q=-0.0 size=N/A time=00:04:56.30 bitrate=N/A speed=   1x    frame= 2970 fps= 10 q=-0.0 size=N/A time=00:04:56.90 bitrate=N/A speed=   1x    [hls @ 0x598085fa0480] Opening '/home/user/vnc-hls/hls/lane1/segment_20250603-131237.ts' for writing
[hls @ 0x598085fa0480] Opening '/home/user/vnc-hls/hls/lane1/stream.m3u8.tmp' for writing
frame= 2976 fps= 10 q=-0.0 size=N/A time=00:04:57.50 bitrate=N/A speed=   1x    frame= 2982 fps= 10 q=-0.0 size=N/A time=00:04:58.10 bitrate=N/A speed=   1x    frame= 2987 fps= 10 q=-0.0 size=N/A time=00:04:58.60 bitrate=N/A speed=   1x    frame= 2993 fps= 10 q=-0.0 size=N/A time=00:04:59.20 bitrate=N/A speed=   1x    frame= 2999 fps= 10 q=-0.0 size=N/A time=00:04:59.80 bitrate=N/A speed=   1x    [hls @ 0x598085fa0480] Opening '/home/user/vnc-hls/hls/lane1/segment_20250603-131240.ts' for writing
[hls @ 0x598085fa0480] Opening '/home/user/vnc-hls/hls/lane1/stream.m3u8.tmp' for writing
frame= 3005 fps= 10 q=-0.0 size=N/A time=00:05:00.40 bitrate=N/A speed=   1x    frame= 3010 fps= 10 q=-0.0 size=N/A time=00:05:00.90 bitrate=N/A speed=   1x    frame= 3016 fps= 10 q=-0.0 size=N/A time=00:05:01.50 bitrate=N/A speed=   1x    frame= 3022 fps= 10 q=-0.0 size=N/A time=00:05:02.10 bitrate=N/A speed=   1x    frame= 3028 fps= 10 q=-0.0 size=N/A time=00:05:02.70 bitrate=N/A speed=   1x    frame= 3033 fps= 10 q=-0.0 size=N/A time=00:05:03.20 bitrate=N/A speed=   1x    frame= 3039 fps= 10 q=-0.0 size=N/A time=00:05:03.80 bitrate=N/A speed=   1x    frame= 3045 fps= 10 q=-0.0 size=N/A time=00:05:04.40 bitrate=N/A speed=   1x    frame= 3051 fps= 10 q=-0.0 size=N/A time=00:05:05.00 bitrate=N/A speed=   1x    frame= 3057 fps= 10 q=-0.0 size=N/A time=00:05:05.60 bitrate=N/A speed=   1x    [hls @ 0x598085fa0480] Opening '/home/user/vnc-hls/hls/lane1/segment_20250603-131243.ts' for writing
[hls @ 0x598085fa0480] Opening '/home/user/vnc-hls/hls/lane1/stream.m3u8.tmp' for writing
frame= 3063 fps= 10 q=-0.0 size=N/A time=00:05:06.20 bitrate=N/A speed=   1x    frame= 3069 fps= 10 q=-0.0 size=N/A time=00:05:06.80 bitrate=N/A speed=   1x    frame= 3074 fps= 10 q=-0.0 size=N/A time=00:05:07.30 bitrate=N/A speed=   1x    frame= 3080 fps= 10 q=-0.0 size=N/A time=00:05:07.90 bitrate=N/A speed=   1x    frame= 3085 fps= 10 q=-0.0 size=N/A time=00:05:08.40 bitrate=N/A speed=   1x    [hls @ 0x598085fa0480] Opening '/home/user/vnc-hls/hls/lane1/segment_20250603-131249.ts' for writing
[hls @ 0x598085fa0480] Opening '/home/user/vnc-hls/hls/lane1/stream.m3u8.tmp' for writing
frame= 3091 fps= 10 q=-0.0 size=N/A time=00:05:09.00 bitrate=N/A speed=   1x    frame= 3096 fps= 10 q=-0.0 size=N/A time=00:05:09.50 bitrate=N/A speed=   1x    frame= 3101 fps= 10 q=-0.0 size=N/A time=00:05:10.00 bitrate=N/A speed=   1x    frame= 3107 fps= 10 q=-0.0 size=N/A time=00:05:10.60 bitrate=N/A speed=   1x    frame= 3112 fps= 10 q=-0.0 size=N/A time=00:05:11.10 bitrate=N/A speed=   1x    frame= 3117 fps= 10 q=-0.0 size=N/A time=00:05:11.60 bitrate=N/A speed=   1x    [hls @ 0x598085fa0480] Opening '/home/user/vnc-hls/hls/lane1/segment_20250603-131252.ts' for writing
[hls @ 0x598085fa0480] Opening '/home/user/vnc-hls/hls/lane1/stream.m3u8.tmp' for writing
frame= 3123 fps= 10 q=-0.0 size=N/A time=00:05:12.20 bitrate=N/A speed=   1x    frame= 3129 fps= 10 q=-0.0 size=N/A time=00:05:12.80 bitrate=N/A speed=   1x    frame= 3134 fps= 10 q=-0.0 size=N/A time=00:05:13.30 bitrate=N/A speed=   1x    frame= 3140 fps= 10 q=-0.0 size=N/A time=00:05:13.90 bitrate=N/A speed=   1x    frame= 3145 fps= 10 q=-0.0 size=N/A time=00:05:14.40 bitrate=N/A speed=   1x    frame= 3151 fps= 10 q=-0.0 size=N/A time=00:05:15.00 bitrate=N/A speed=   1x    frame= 3157 fps= 10 q=-0.0 size=N/A time=00:05:15.60 bitrate=N/A speed=   1x    frame= 3162 fps= 10 q=-0.0 size=N/A time=00:05:16.10 bitrate=N/A speed=   1x    frame= 3168 fps= 10 q=-0.0 size=N/A time=00:05:16.70 bitrate=N/A speed=   1x    frame= 3173 fps= 10 q=-0.0 size=N/A time=00:05:17.20 bitrate=N/A speed=   1x    frame= 3179 fps= 10 q=-0.0 size=N/A time=00:05:17.80 bitrate=N/A speed=   1x    [hls @ 0x598085fa0480] Opening '/home/user/vnc-hls/hls/lane1/segment_20250603-131255.ts' for writing
[hls @ 0x598085fa0480] Opening '/home/user/vnc-hls/hls/lane1/stream.m3u8.tmp' for writing
frame= 3185 fps= 10 q=-0.0 size=N/A time=00:05:18.40 bitrate=N/A speed=   1x    frame= 3190 fps= 10 q=-0.0 size=N/A time=00:05:18.90 bitrate=N/A speed=   1x    frame= 3196 fps= 10 q=-0.0 size=N/A time=00:05:19.50 bitrate=N/A speed=   1x    frame= 3201 fps= 10 q=-0.0 size=N/A time=00:05:20.00 bitrate=N/A speed=   1x    frame= 3207 fps= 10 q=-0.0 size=N/A time=00:05:20.60 bitrate=N/A speed=   1x    [hls @ 0x598085fa0480] Opening '/home/user/vnc-hls/hls/lane1/segment_20250603-131301.ts' for writing
[hls @ 0x598085fa0480] Opening '/home/user/vnc-hls/hls/lane1/stream.m3u8.tmp' for writing
frame= 3212 fps= 10 q=-0.0 size=N/A time=00:05:21.10 bitrate=N/A speed=   1x    frame= 3218 fps= 10 q=-0.0 size=N/A time=00:05:21.70 bitrate=N/A speed=   1x    frame= 3224 fps= 10 q=-0.0 size=N/A time=00:05:22.30 bitrate=N/A speed=   1x    